<svg xmlns="http://www.w3.org/2000/svg" data-name="Layer 1" viewBox="0 0 512 512">
    <path fill="#38bdf8"
          d="M471.7002,380.17993A19.02723,19.02723,0,0,1,445.75,387.12L405.6001,364,412.04,387.96a18.99914,18.99914,0,0,1-36.71,9.81006l-16.27-60.56006-46.87012-26.98-26.69971-15.37A6.99713,6.99713,0,0,0,275,300.91992V385.6l44.46,44.34a18.97179,18.97179,0,0,1-26.87012,26.79L275,439.18994v46.23a19.00009,19.00009,0,0,1-38,0v-46.23l-17.27,17.23c-7.02,6.99-18.31982,7.82007-25.91992,1.46008a18.89807,18.89807,0,0,1-1.27-27.94006L237,385.6V300.91992A6.99713,6.99713,0,0,0,226.50977,294.86l-73.56983,42.35-16.27,60.56006A18.99914,18.99914,0,0,1,99.96,387.96L106.3999,364,66.25,387.12a18.96148,18.96148,0,1,1-19-32.82l40.1499-23.11011L63.37012,324.77A18.94992,18.94992,0,1,1,73.21,288.16992l60.73,16.22009,73.52-42.31994a7.00355,7.00355,0,0,0,0-12.14014l-73.52-42.31994L73.21,223.83a18.94986,18.94986,0,1,1-9.83984-36.6l24.02978-6.41992L47.25,157.7a18.96148,18.96148,0,1,1,19-32.82L106.3999,148,99.96,124.04a18.99913,18.99913,0,0,1,36.71-9.81l16.27,60.56006,73.56983,42.35A6.99718,6.99718,0,0,0,237,211.08V126.4L192.54,82.06a18.898,18.898,0,0,1,1.27-27.94c7.6001-6.36,18.8999-5.53,25.91992,1.46L237,72.81V26.58a19.0001,19.0001,0,0,1,38,0V72.81l17.27-17.23c7.02-6.99,18.31982-7.81995,25.91992-1.46a18.898,18.898,0,0,1,1.27,27.94L275,126.4v84.68a6.99718,6.99718,0,0,0,10.49023,6.06l73.56983-42.35,16.27-60.56006a18.99913,18.99913,0,0,1,36.71,9.81L405.6001,148,445.75,124.88a18.96148,18.96148,0,1,1,19,32.82l-40.1499,23.11011L448.62988,187.23a18.94986,18.94986,0,1,1-9.83984,36.6l-60.73-16.22-4.6001,2.65L304.54,249.92993a7.00355,7.00355,0,0,0,0,12.14014l31.66992,18.23,41.8501,24.09,60.73-16.22009a18.95,18.95,0,1,1,9.83984,36.6001l-24.02978,6.41992L464.75,354.30005A18.9095,18.9095,0,0,1,471.7002,380.17993Z"/>
</svg>
